# xmcd
#
# Track frame offsets:
# 150
# 16950
# 28370
# 44787
# 60377
# 79695
# 93197
# 112847
# 132332
# 149302
# 163160
# 187825
#
# Disc length: 2670 seconds
#
# Revision: 2
# Processed by: cddbd v1.4PL0 Copyright (c) Steve Scherf et al.
# Submitted via: Axialis_AX_CDPlayer 2.6
#
DISCID=9b0a6c0c
DTITLE=Gary Allan - Alright Guy
DYEAR=2000
DGENRE=
TTITLE0=Man to man
TTITLE1=The devil's candy
TTITLE2=What I'd say
TTITLE3=Man of me
TTITLE4=Abobe walls
TTITLE5=What's on my mind
TTITLE6=Alright guy
TTITLE7=The one
TTITLE8=I'm doin' my best
TTITLE9=I don't look back
TTITLE10=What would willie do
TTITLE11=Runaway
EXTD=
EXTT0=
EXTT1=
EXTT2=
EXTT3=
EXTT4=
EXTT5=
EXTT6=
EXTT7=
EXTT8=
EXTT9=
EXTT10=
EXTT11=
PLAYORDER=
